<svg xmlns="http://www.w3.org/2000/svg" width="72" height="107" viewBox="0 0 72 107">
  <defs>
    <style>
      .cls-1 {
        fill: #fff;
      }

      .cls-2, .cls-3 {
        stroke: none;
      }

      .cls-3 {
        fill: #707070;
      }
    </style>
  </defs>
  <g id="Path_1" data-name="Path 1" class="cls-1">
    <path class="cls-2" d="M 8.964099884033203 106.4999237060547 C 4.29368782043457 106.4804458618164 0.5 102.6748962402344 0.5 98 L 0.5 9 C 0.5 4.313085556030273 4.313085556030273 0.5 9 0.5 L 63 0.5 C 67.68691253662109 0.5 71.5 4.313085556030273 71.5 9 L 70.99488830566406 89.70274353027344 C 70.994873046875 92.29167175292969 70.59986877441406 94.1204833984375 69.75175476074219 95.46122741699219 C 68.84049987792969 96.90184783935547 67.33798217773438 97.81922149658203 65.15833282470703 98.26557159423828 L 8.964099884033203 106.4999237060547 Z"/>
    <path class="cls-3" d="M 9 1 C 4.588783264160156 1 1 4.588783264160156 1 9 L 1 98 C 1 102.3875198364258 4.550605773925781 105.96142578125 8.92926025390625 105.9996948242188 L 65.07173919677734 97.77291870117188 C 68.97383117675781 96.96944427490234 70.494873046875 94.70505523681641 70.494873046875 89.70587158203125 L 70.49488830566406 89.69961547851562 L 71 8.996269226074219 C 70.99781036376953 4.586898803710938 67.40986633300781 1 63 1 L 9 1 M 9 0 L 63 0 C 67.97055816650391 0 72 4.029426574707031 72 9 L 71.494873046875 89.70587158203125 C 71.494873046875 94.67642974853516 70.05675506591797 97.77825927734375 65.24475860595703 98.75823974609375 L 9 107 C 4.029426574707031 107 0 102.9705581665039 0 98 L 0 9 C 0 4.029426574707031 4.029426574707031 0 9 0 Z"/>
  </g>
</svg>
